<svg viewBox="0 0 24 24" xmlns="http://www.w3.org/2000/svg" fill="currentColor"><g><path d="M17 4c-1.1 0-2 .9-2 2 0 .33.08.65.22.92C15.56 7.56 16.23 8 17 8c1.1 0 2-.9 2-2s-.9-2-2-2zm-4 2c0-2.21 1.79-4 4-4s4 1.79 4 4-1.79 4-4 4c-1.17 0-2.22-.5-2.95-1.3l-4.16 2.37c.07.3.11.61.11.93s-.04.63-.11.93l4.16 2.37c.73-.8 1.78-1.3 2.95-1.3 2.21 0 4 1.79 4 4s-1.79 4-4 4-4-1.79-4-4c0-.32.04-.63.11-.93L8.95 14.7C8.22 15.5 7.17 16 6 16c-2.21 0-4-1.79-4-4s1.79-4 4-4c1.17 0 2.22.5 2.95 1.3l4.16-2.37c-.07-.3-.11-.61-.11-.93zm-7 4c-1.1 0-2 .9-2 2s.9 2 2 2c.77 0 1.44-.44 1.78-1.08.14-.27.22-.59.22-.92s-.08-.65-.22-.92C7.44 10.44 6.77 10 6 10zm11 6c-.77 0-1.44.44-1.78 1.08-.14.27-.22.59-.22.92 0 1.1.9 2 2 2s2-.9 2-2-.9-2-2-2z"></path></g></svg>